<svg width="152" height="41" viewBox="0 0 152 41" fill="none" xmlns="http://www.w3.org/2000/svg">
<path d="M17.4296 40.5659C17.4296 40.5659 0 35.4332 0 10.2414V0.565918H34.9186V10.2414C34.9186 34.5482 17.4296 40.5659 17.4296 40.5659Z" fill="#4FB84F"/>
<path d="M27.5418 10.3005H13.5029V18.3241H27.5418V20.743C27.5418 24.8137 26.4115 28.0586 20.1654 28.1176H13.5029V38.678C15.8229 40.094 17.4885 40.566 17.4885 40.566C17.4885 40.566 34.9181 34.5483 34.9181 10.2415V2.98486C34.9181 7.05566 33.074 10.2415 27.5418 10.3005Z" fill="#045433"/>
<path d="M44.6143 19.9761V6.34784H53.0613V7.35078C53.0613 8.35373 52.2285 9.17969 51.2173 9.17969H48.005V12.0705H52.2285V13.0145C52.2285 14.0764 51.3957 14.9024 50.325 14.9024H48.0645V19.9761H44.6143Z" fill="white"/>
<path d="M58.2962 12.4835H59.7834C60.3187 12.4835 60.7351 12.3655 61.0921 12.0705C61.3895 11.7756 61.568 11.3626 61.568 10.8316C61.568 10.0646 61.2705 9.59267 60.7351 9.35669C60.4377 9.23869 60.0213 9.17969 59.4859 9.17969H58.3557V12.4835H58.2962ZM54.965 6.34784H59.7834C60.9731 6.34784 61.8654 6.46583 62.4603 6.70182C63.2336 6.99681 63.8879 7.52778 64.3043 8.17675C64.7802 8.88471 64.9587 9.71067 64.9587 10.6546C64.9587 11.4216 64.7802 12.1295 64.4233 12.8375C64.0664 13.5455 63.531 14.0174 62.8767 14.3714V14.4304C62.9956 14.6074 63.1741 14.8434 63.412 15.2564L66.0889 20.0351H62.3413L59.9023 15.4334H58.2962V20.0351H54.965V6.34784Z" fill="white"/>
<path d="M67.5762 19.9762V6.28885H76.2017V9.17971H70.9669V11.6576H75.1904V14.4894H70.9669V17.0853H76.4991V19.9762H67.5762Z" fill="white"/>
<path d="M78.6407 19.9762V6.28885H87.2662V9.17971H82.0314V11.6576H86.1955V14.4894H82.0314V17.0853H87.5636V19.9762H78.6407Z" fill="white"/>
<path d="M93.0363 17.0853H94.4045C95.5942 17.0853 96.4865 16.7313 97.1408 16.0823C97.7952 15.3744 98.1521 14.4304 98.1521 13.1325C98.1521 11.8346 97.7952 10.8906 97.1408 10.1826C96.4865 9.53367 95.5347 9.17969 94.4045 9.17969H93.0363V17.0853ZM89.705 6.34784H94.5829C96.7839 6.34784 98.509 6.93781 99.7583 8.17675C101.007 9.35669 101.662 11.0676 101.662 13.1915C101.662 15.3154 101.007 17.0263 99.7583 18.2062C98.509 19.3862 96.7244 20.0351 94.5829 20.0351H89.705V6.34784Z" fill="white"/>
<path d="M106.599 13.0735C106.599 14.2534 106.956 15.1973 107.67 16.0233C108.384 16.7903 109.276 17.2032 110.347 17.2032C111.418 17.2032 112.31 16.7903 113.024 16.0233C113.738 15.2563 114.095 14.2534 114.095 13.0735C114.095 11.9525 113.738 11.0086 113.024 10.3006C112.31 9.53364 111.418 9.17966 110.347 9.17966C109.276 9.17966 108.384 9.53364 107.67 10.3006C106.956 11.0086 106.599 11.9525 106.599 13.0735ZM103.149 13.0735C103.149 11.0676 103.803 9.41564 105.172 8.11771C106.54 6.76078 108.265 6.11182 110.347 6.11182C112.429 6.11182 114.154 6.76078 115.522 8.11771C116.89 9.47464 117.545 11.1266 117.545 13.0735C117.545 15.0794 116.89 16.7903 115.522 18.1472C114.154 19.5041 112.429 20.2121 110.347 20.2121C108.265 20.2121 106.54 19.5041 105.172 18.1472C103.803 16.7903 103.149 15.0794 103.149 13.0735Z" fill="white"/>
<path d="M119.091 19.9761L120.222 6.34784H123.85L125.873 12.1295L126.587 14.3714H126.646C126.884 13.4275 127.122 12.7195 127.36 12.1295L129.383 6.34784H133.011L134.142 19.9761H130.751L130.334 13.8405C130.334 13.5455 130.275 13.1915 130.275 12.8375C130.275 12.4835 130.275 12.1295 130.275 11.8935V11.5396H130.215C129.918 12.4835 129.68 13.2505 129.442 13.8405L128.014 17.7933H125.1L123.672 13.8405L122.899 11.5396H122.839C122.899 12.3655 122.899 13.1325 122.839 13.8405L122.423 19.9761H119.091Z" fill="white"/>
<path d="M47.5598 33.8416H49.9353V26.2186H52.8808V24.1947H44.6143V26.2186H47.5598V33.8416Z" fill="white"/>
<path d="M54.0779 33.8416H60.3491V31.8178H56.4533V29.9964H59.4125V27.9725H56.4533V26.2186H60.159V24.1947H54.0779V33.8416Z" fill="white"/>
<path d="M61.3928 28.9979C61.3928 31.8583 63.4425 34.0035 66.483 34.0035C69.0214 34.0035 70.3924 32.3845 70.3924 32.3845L69.1707 30.6575C69.1707 30.6575 68.0576 31.8448 66.5916 31.8448C64.7999 31.8448 63.8497 30.3741 63.8497 28.944C63.8497 27.5543 64.732 26.1916 66.5916 26.1916C67.9355 26.1916 69.0214 27.1765 69.0214 27.1765L70.1209 25.3955C70.1209 25.3955 68.8856 24.0328 66.483 24.0328C63.5646 24.0328 61.3928 26.1916 61.3928 28.9979Z" fill="white"/>
<path d="M71.8275 33.8416H74.2029V30.0638H77.7322V33.8416H80.1076V24.1947H77.7322V28.0535H74.2029V24.1947H71.8275V33.8416Z" fill="white"/>
<path d="M82.3924 33.8416H84.7679V29.3487C84.7679 28.7416 84.6593 27.7027 84.6593 27.7027H84.6864C84.6864 27.7027 85.1208 28.7146 85.5009 29.3487L88.2021 33.8416H90.5911V24.1947H88.2157V28.7011C88.2157 29.3083 88.3243 30.3472 88.3243 30.3472H88.2971C88.2971 30.3472 87.8627 29.3352 87.4827 28.7011L84.795 24.1947H82.3924V33.8416Z" fill="white"/>
<path d="M92.2127 28.9575C92.2127 31.7908 94.3574 34.0035 97.2894 34.0035C100.221 34.0035 102.366 31.7908 102.366 28.9575C102.366 26.1916 100.221 24.0328 97.2894 24.0328C94.3574 24.0328 92.2127 26.1916 92.2127 28.9575ZM94.6696 28.9575C94.6696 27.3789 95.8369 26.1916 97.2894 26.1916C98.7418 26.1916 99.9091 27.3789 99.9091 28.9575C99.9091 30.6035 98.7418 31.8448 97.2894 31.8448C95.8369 31.8448 94.6696 30.6035 94.6696 28.9575Z" fill="white"/>
<path d="M103.986 33.8416H110.325V31.8178H106.362V24.1947H103.986V33.8416Z" fill="white"/>
<path d="M110.903 28.9575C110.903 31.7908 113.048 34.0035 115.98 34.0035C118.912 34.0035 121.057 31.7908 121.057 28.9575C121.057 26.1916 118.912 24.0328 115.98 24.0328C113.048 24.0328 110.903 26.1916 110.903 28.9575ZM113.36 28.9575C113.36 27.3789 114.528 26.1916 115.98 26.1916C117.433 26.1916 118.6 27.3789 118.6 28.9575C118.6 30.6035 117.433 31.8448 115.98 31.8448C114.528 31.8448 113.36 30.6035 113.36 28.9575Z" fill="white"/>
<path d="M122.025 28.9979C122.025 32.1551 124.306 34.0035 126.79 34.0035C128.405 34.0035 129.342 33.167 129.342 33.167H129.369C129.369 33.167 129.355 33.3694 129.355 33.5718V33.8416H131.337V28.3908H127.862V30.4011H129.233V31.1432C129.233 31.1432 128.405 31.8448 127.265 31.8448C125.758 31.8448 124.482 30.7519 124.482 28.917C124.482 27.4868 125.31 26.1916 127.346 26.1916C128.717 26.1916 129.708 27.0821 129.708 27.0821L130.849 25.3146C130.849 25.3146 129.6 24.0328 127.116 24.0328C124.157 24.0328 122.025 26.1916 122.025 28.9979Z" fill="white"/>
<path d="M133.123 33.8416H135.498V24.1947H133.123V33.8416Z" fill="white"/>
<path d="M137.775 33.8416H144.047V31.8178H140.151V29.9964H143.11V27.9725H140.151V26.2186H143.857V24.1947H137.775V33.8416Z" fill="white"/>
<path d="M145.036 32.6273C145.036 32.6273 146.298 34.0035 148.579 34.0035C150.764 34.0035 151.999 32.6138 151.999 31.0083C151.999 27.959 147.629 28.1749 147.629 26.9606C147.629 26.4209 148.172 26.2051 148.66 26.2051C149.828 26.2051 150.805 27.0551 150.805 27.0551L151.809 25.1257C151.809 25.1257 150.778 24.0328 148.687 24.0328C146.76 24.0328 145.253 25.2066 145.253 26.9876C145.253 29.9559 149.624 29.9154 149.624 31.0622C149.624 31.6424 149.095 31.8313 148.606 31.8313C147.384 31.8313 146.285 30.8329 146.285 30.8329L145.036 32.6273Z" fill="white"/>
</svg>
